<?xml version="1.0" encoding="utf-8"?>
<!-- Generator: Adobe Illustrator 27.5.0, SVG Export Plug-In . SVG Version: 6.00 Build 0)  -->
<svg version="1.1" xmlns="http://www.w3.org/2000/svg" xmlns:xlink="http://www.w3.org/1999/xlink" x="0px" y="0px"
	 viewBox="0 0 500 500" style="enable-background:new 0 0 500 500;" xml:space="preserve">
<g id="BACKGROUND">
	<rect style="fill:#FFFFFF;" width="500" height="500"/>
</g>
<g id="OBJECTS">
	<g>
		<g style="opacity:0.44;">
			<path style="fill:#FADDD4;" d="M261.121,417.426c4.693,0,18.632-27.677,21.021-31.76c8.58-14.656,16.109-29.972,22.23-45.859
				c13.822-35.874,24.591-79.425,20.75-118.095c-2.462-24.78-11.983-48.188-21.397-71.18c-8.013-19.568-16.026-39.136-24.038-58.704
				c-0.683-1.668-1.711-3.599-3.485-3.701c-1.165-0.067-2.191,0.72-3.098,1.466c-7.8,6.409-15.6,12.817-23.4,19.225
				c-3.591,2.95-15.243,15.934-20.07,15.934c-38.921,33.944-56.523,80.292-56.523,131.213c0,71.203,38.398,132.675,59.844,161.46
				C232.955,417.426,261.111,417.426,261.121,417.426z"/>
			<path style="fill:#FADDD4;" d="M156.45,417.426h96.368c-2.408-17.601-18.015-74.681-26.119-101.837
				c-6.384-21.391-15.93-45.041-27.297-63.968c-11.518-19.178-32.43-31.328-51.497-41.353
				c-12.122-6.373-24.432-12.374-36.909-17.993c-10.863-4.892-22.807-12.327-34.29-15.08c-2.78-0.667-9.699,47.518-10.045,51.948
				c-1.422,18.238-0.727,36.654,2.121,54.72c5.142,32.616,16.927,66.457,36.843,92.809
				C120.285,396.067,138.216,408.933,156.45,417.426z"/>
			<path style="fill:#FADDD4;" d="M430.142,192.22c-0.458-3.21-0.951-6.406-1.477-9.584c-11.792,10.602-28.413,12.931-43.312,18.089
				c-33.204,11.495-64.05,37.704-86.341,64.746c-42.337,51.36-53.646,122.454-56.597,151.955h105.9
				c14.904-7.443,29.344-18.075,41.759-33.137C433.933,331.081,439.617,258.647,430.142,192.22z"/>
		</g>
		<path style="fill:#D47172;" d="M293.176,137.417c0.736-1.061,1.699-1.964,2.822-2.604c2.956-1.683,6.549-2.366,8.291-5.62
			c0.705-1.317,1.01-2.83,1.799-4.1c0.786-1.266,2.047-2.231,3.475-2.656c0.626-0.186,1.297-0.271,1.932-0.122
			c0.992,0.232,1.782,1.009,2.297,1.889c1.362,2.32,1.046,5.348-0.229,7.716c-1.473,2.736-4.355,5.4-7.111,6.782
			c-2.628,1.318-5.728,1.697-7.699,4.1c-0.654,0.798-1.127,1.767-1.952,2.387c-1.487,1.116-3.926,0.554-4.773-1.101
			c-0.412-0.805-0.465-1.751-0.369-2.65C291.813,139.996,292.352,138.607,293.176,137.417z"/>
		<path style="fill:#FADDD4;" d="M306.211,153.309c-0.692-0.044-1.38,0.083-1.997,0.423c-1.478,0.815-2.172,2.63-2.124,4.317
			c0.078,2.77,2.644,11.048,6.65,7.973c3.368-2.585,3.616-8.226,0.769-11.151C308.647,153.985,307.425,153.385,306.211,153.309z"/>
		<g>
			<g>
				<g>
					<polygon points="300.407,417.167 282.001,305.007 280.027,305.331 298.38,417.167 					"/>
				</g>
				<g>
					<polygon points="203.18,417.167 221.533,305.331 219.559,305.007 201.153,417.167 					"/>
				</g>
			</g>
			<g>
				<g>
					<polygon points="289.867,417.167 271.556,305.588 269.582,305.912 287.84,417.167 					"/>
				</g>
				<g>
					<polygon points="192.83,417.167 211.088,305.912 209.115,305.588 190.803,417.167 					"/>
				</g>
			</g>
			<path style="fill:#F1CC4B;" d="M308.631,295.688l-1.909-76.343c-0.827-33.063-27.868-59.436-60.941-59.436h0
				c-33.222,0-60.327,26.601-60.95,59.817l-1.425,75.963H308.631z"/>
			<g>
				<path d="M230.594,133.452c0.018,0.787,0.056,1.58,0.132,2.367c0.177,1.822,0.56,3.615,1.371,5.245
					c0.899,1.807,2.284,3.326,3.749,4.714c0.611,0.579,1.246,1.144,1.979,1.557c1.594,0.898,3.501,1.004,5.331,1.028
					c2.788,0.037,5.608-0.069,8.296-0.807c3.14-0.862,9.495-3.63,10.353-7.149c0.256-1.051,0.178-2.151,0.258-3.23
					c0.129-1.76,0.676-3.459,0.996-5.195c0.424-2.298,0.443-4.704-0.235-6.94c-1.136-3.749-5.019-8.325-8.629-9.914
					c-1.362-0.6-2.865-0.787-4.347-0.925c-1.591-0.148-3.227-0.244-4.759,0.21c-0.773,0.229-1.5,0.593-2.267,0.842
					c-0.772,0.25-1.577,0.381-2.371,0.547c-2.385,0.497-5.213,1.523-6.811,3.463c-1.242,1.508-1.916,3.412-2.284,5.331
					C230.804,127.488,230.529,130.526,230.594,133.452z"/>
				<path style="fill:#8CC9DE;" d="M253.588,235.272c-6.71-1.17-13.626-1.138-20.33,0.065c-4.483,0.804-8.391,2.542-12.568,4.129
					c-4.892,1.858-9.768,3.226-14.816,4.613c-5.654,1.554-11.171,3.579-16.553,5.902c-3.261,1.408-6.556,2.783-9.813,4.23
					c-3.099,1.377-6.231,2.773-8.922,4.836c-4.17,3.197-5.481,6.494-5.156,11.502c0.314,4.831,2.831,8.733,6.909,11.339
					c4.769,3.048,10.917,3.59,16.426,3.053c7.938-0.773,16.139-3.828,23.824-0.927c7.188,2.714,16.08,4.879,23.773,5.571
					c6.074,0.546,12.217-0.002,18.255-0.701c10.951-1.267,21.808-4.252,32.753-4.295c12.319-0.048,29.377,0.424,38.766-8.965
					c4.422-4.422,5.409-10.971,1.887-16.304c-2.196-3.326-5.001-5.676-8.406-7.718c-13.788-8.271-31.012-7.312-46.628-11.141
					c-5.946-1.458-11.708-3.632-17.704-4.866C254.721,235.479,254.155,235.371,253.588,235.272z"/>
				<path style="fill:#FFFFFF;stroke:#222221;stroke-width:0.5;stroke-miterlimit:10;" d="M260.548,173.198
					c-3.14-1.66-4.506-4.812-5.074-8.167c-0.604-3.571-0.816-7.206-0.649-10.823c0.021-0.459,0.233-0.88,0.555-1.208
					c3.091-3.156,4.329-8.199,4.663-12.471c0.155-1.978,0.06-3.938,0.089-5.917c0.037-2.56-0.062-5.12-0.317-7.668
					c-0.069-0.687-0.152-1.407-0.531-1.986c-1.047-1.601-4.252-2.091-5.822-3.298c-2.247-1.728-4.806,0.077-7.356,0.696
					c-2.946,0.715-5.956,1.166-8.982,1.343c-0.526,0.031-1.067,0.057-1.549,0.271c-1.32,0.588-1.668,2.271-1.799,3.709
					c-0.336,3.707-0.296,7.451,0.07,11.154c0.337,3.409,0.839,7.1,2.252,10.253c0.387,0.862,0.957,1.627,1.415,2.454
					c0.904,1.632,0.7,3.495,0.737,5.309c0.043,2.098-0.123,4.209-0.651,6.244c-0.959,3.695-3.556,8.152-7.569,8.997
					c3.364,5.708,4.978,12.22,6.154,18.683c0.353,1.941,2.596,20.531,1.786,20.561c5.246-0.197,10.556-0.851,14.78-3.842
					c2.174-1.54,3.805-3.766,5.988-5.27c0.771-0.531,1.582-0.913,2.419-1.224C260.104,191.767,259.825,182.493,260.548,173.198z"/>
				<path style="fill:#4764A8;" d="M268.601,174.379c-0.018,0.186-5.076-0.902-5.526-1.027c-1.698-0.474-3.037-0.661-4.285-2.091
					c-0.06-0.069-0.123-0.139-0.191-0.202c-1.221,0.923-2.678,1.59-4.055,2.057c-2.866,0.971-6.055,1.046-9.054,1.059
					c-4.679,0.021-9.674-0.54-12.962-3.983c-0.061,0.027-0.121,0.056-0.18,0.087c-1.463,0.757-2.955,1.078-4.548,1.516
					c-0.866,0.238-1.732,0.475-2.598,0.713c-0.77,0.211-1.804,0.713-2.598,0.713c0.927,2.292,2.741,4.084,4.26,6.034
					c1.524,1.956,2.587,4.079,2.455,6.599c-0.137,2.632-0.824,5.262-1.866,7.686c-1.332,3.099-3.234,4.586-5.86,6.535
					c-2.672,1.983-2.119,4.25-2.147,7.421c-0.042,5.333-0.87,10.574-1.693,15.828c-0.71,4.531-0.474,9.429-0.794,14.062
					c-0.062,0.896-0.159,1.874-0.792,2.51c-0.35,0.352-0.83,0.558-1.16,0.929c-0.33,0.371-0.425,1.045-0.002,1.305
					c2.708,0.435,5.461,0.883,7.932,2.074c2.153,1.038,4.01,2.603,6.116,3.732c4.138,2.22,9.014,2.646,13.703,2.386
					c4.689-0.259,9.326-1.155,14.015-1.396c3.35-0.172,6.76-0.015,10.002-0.876c2.565-0.682,4.918-1.974,7.243-3.255
					c1.399-0.771,2.797-1.541,4.196-2.312c0.745-0.41,1.539-0.873,1.883-1.651c0.406-0.918-0.969-3.16-1.077-4.313
					c-0.219-2.341-0.412-4.683-0.836-6.998c-0.407-2.224-1.005-4.41-1.423-6.632c-0.823-4.376-0.944-8.849-1.062-13.3
					c-0.076-2.891-0.258-6.155-1.004-8.972c-0.924-3.487-3.226-6.875-4.839-10.086c-1.115-2.219-2.233-4.446-3.053-6.79
					c-0.604-1.726-1.222-3.318-0.694-5.077C266.555,177.18,268.457,175.883,268.601,174.379z"/>
				<path d="M250.397,126.416c2.07-0.093,4.152,0.071,6.182,0.486c0.503,0.103,1.032,0.237,1.394,0.602
					c0.335,0.338,0.473,0.82,0.585,1.282c0.581,2.406,0.8,4.9,0.647,7.37c2.539-3.239,2.096-6.272,2.19-10.045
					c0.084-3.341-0.11-5.811-3.28-7.915c-2.51-1.666-5.588-2.176-8.563-2.647c-2.736-0.433-5.607,0.975-8.232,0.211
					c-0.56-0.163-1.085-0.433-1.648-0.587c-0.865-0.236-1.8-0.184-2.649,0.105c-1.575,0.536-2.907,2.266-2.316,3.821
					c-1.028-0.274-2.325-0.466-2.978,0.374c-0.338,0.435-0.382,1.024-0.397,1.575c-0.017,0.622,0.007,1.309,0.428,1.768
					c0.205,0.224,0.487,0.369,0.684,0.601c0.72,0.852,0.055,3.026-0.055,4.054c-0.226,2.112-0.353,4.134-0.128,6.258
					c0.068,0.639,0.424,1.366,1.064,1.42c0.863,0.072,1.256-1.041,1.361-1.901c0.226-1.852,0.451-3.704,0.677-5.556
					c4.72,0.854,9.489-0.868,14.272-1.229C249.888,126.443,250.143,126.428,250.397,126.416z"/>
				<path style="fill:#FFFFFF;stroke:#222221;stroke-width:0.5;stroke-miterlimit:10;" d="M243.62,265.324
					c-0.029-1.926,1.006-7.422-1.802-7.279c-4.96,0.254-9.941,0.089-14.873-0.492c-0.33-0.039-5.633-1.371-5.967-1.424
					c-0.345,2.735-2.204,5.621-2.708,8.317c-0.263,1.408,5.391,3.917,5.123,5.324c6.778,0.293,13.595,0.213,20.312,1.169
					C243.57,270.92,243.626,265.676,243.62,265.324z"/>
				<path style="fill:#4764A8;" d="M220.171,269.805c0.258-1.33,0.503-2.662,0.748-3.994c0.364-1.976,0.827-3.902,1.31-5.85
					c0.273-1.098,0.565-2.257,0.67-3.417c-0.234-0.16-0.458-0.335-0.66-0.544c-1.827-1.898-5.577-5.205-8.405-4.463
					c-0.751,0.197-1.406,0.646-2.07,1.05c-6.543,3.982-14.767,3.943-21.825,6.918c-1.106,0.466-2.216,1.032-2.978,1.959
					c-0.763,0.927-1.1,2.296-0.529,3.352c0.564,1.044,1.845,1.511,3.031,1.522c1.187,0.011,2.343-0.339,3.516-0.519
					c3.518-0.539,8.606,0.18,12.058,1.068c4.376,1.125,8.74,2.4,13.261,2.787C218.922,269.727,219.547,269.763,220.171,269.805z"/>
				<path style="fill:#8CC9DE;" d="M316.227,253.531c-5.601,0.058-10.923,1.626-16.301-0.246c-5.467-1.904-11.108-4.668-16.96-2.694
					c-4.778,1.612-9.17,5.806-14.464,5.448c-2.107-0.143-4.072-1.057-6.078-1.718c-4.334-1.428-6.784,0.496-10.764,1.873
					c-2.308,0.799-4.717,1.303-7.152,1.505c-3.177,0.263-5.389-0.878-6.089,2.932c-0.917,4.993-1.609,10.135-2.58,15.178
					c-0.196,1.018-0.395,2.038-0.6,3.057c-0.196,1.354-0.412,2.704-0.659,4.048c2.157,0.412,4.317,0.814,6.48,1.193
					c13.591,2.387,27.285,4.658,41.112,4.932c13.745,0.273,28.44-0.069,40.918-6.431c4.295-2.19,7.412-6.352,8.86-10.951
					c0.852-2.705,1.156-5.685,0.203-8.357c-1.095-3.071-4.023-4.528-6.327-6.559C323.112,254.349,319.803,253.494,316.227,253.531z"
					/>
				<path style="fill:#FFFFFF;stroke:#222221;stroke-width:0.5;stroke-miterlimit:10;" d="M294.26,284.344
					c-1.427-3.376-3.321-5.166-3.868-8.897c-2.198-0.127-13.887-0.79-16.361-0.908c-0.658-0.032-9.45-0.237-9.461-0.062
					c0,0.001-0.966,15.239-0.966,15.239c7.607-0.712,23.017-0.343,30.657-1.02C293.75,287.501,294.764,285.537,294.26,284.344z"/>
				<path style="fill:#4764A8;" d="M326.475,285.62c-0.061-0.23-0.132-0.451-0.213-0.664c-3.092-8.181-15.483-4.878-21.07-9.696
					c-2.138-1.844-3.649-4.686-6.382-5.397c-2.521-0.656-6.543,0.876-8.753,2.145c-1.297,0.745-1.986,2.128-3.191,3.033
					c-0.148,0.111-0.372,0.204-0.625,0.292c1.342,2.972,1.749,6.382,2.429,9.522c0.359,1.658-0.104,4.578,0.173,4.517
					c0.817-0.178,3.419-0.002,4.256-0.054c1.914-0.118,3.825-0.278,5.739-0.397c2.244-0.14,4.565,0.183,6.84,0.215
					c5.338,0.074,10.674,0.32,15.997,0.737c1.579,0.124,3.439,0.146,4.411-1.103C326.76,287.905,326.757,286.68,326.475,285.62z"/>
				<path style="fill:#8CC9DE;" d="M274.217,293.156c0.332-2.086,0.751-4.022,0.935-6.107c0.218-2.478,0.366-4.954,0.364-7.442
					c-0.003-5.047-0.513-10.095-1.525-15.04c-3.394,1.954-7.607,1.216-11.523,1.141c-4.656-0.09-9.248,0.842-13.887,1.052
					c-2.108,0.095-3.995-0.086-6.001-0.501c-2.163-0.447-4.834-0.154-7.036-0.062c-1.2,0.05-2.267-0.152-3.461-0.423
					c-1.234-0.28-2.796-1.017-4.049-1.017c-4.405-1.158-8.81-2.316-13.215-3.474c-1.302-0.342-2.608-0.686-3.851-1.202
					c-2.996-1.244-5.926-2.54-9.158-3.014c-3.62-0.531-7.307-0.472-10.945-0.177c-3.848,0.312-7.379,0.236-11.15-0.301
					c-3.239-0.462-6.996-0.492-9.662,1.694c-2.426,1.989-3.281,5.279-3.879,8.358c-0.285,1.465-0.544,2.956-0.415,4.443
					c0.105,1.217,0.467,2.397,0.88,3.546c1.215,3.384,2.895,6.599,4.973,9.534c2.173,3.07,5.186,3.535,8.79,4.194
					c13.518,2.469,27.454,3.241,41.095,5.135c16.879,2.344,34.085,4.555,51.101,5.24c0.247,0.01,0.533,0.004,0.69-0.188
					c0.089-0.109,0.115-0.256,0.137-0.396C273.687,296.484,273.952,294.82,274.217,293.156z"/>
				<path style="fill:none;stroke:#2D2B3F;stroke-width:0.75;stroke-miterlimit:10;" d="M243.73,146.011
					c0.872,0.763,2.03,1.191,3.188,1.18c1.158-0.011,2.307-0.462,3.165-1.241"/>
				<path style="fill:none;stroke:#222221;stroke-width:0.5;stroke-miterlimit:10;" d="M204.516,257.735
					c3.384,0.727,6.338,2.24,9.678,3.144c4.826,1.305,9.651,2.609,14.477,3.914c1.756,0.475,3.517,0.951,5.317,1.212
					c2.571,0.373,5.183,0.303,7.779,0.231c10.933-0.299,21.866-0.599,32.798-0.898c0.047,0.807,0.021,1.712,0.068,2.52
					c0.04,0.693,0.081,1.389,0.204,2.072c0.291,1.62,1.042,3.266,0.582,4.847c-0.342,1.174-0.223,1.679-0.146,2.9"/>
				<path style="fill:none;stroke:#222221;stroke-width:0.5;stroke-miterlimit:10;" d="M303.521,252.654
					c-8.067-0.997-16.696-1.511-24.712,0.003c-6.594,1.245-13.222,2.305-19.875,3.18c-4.88,0.641-9.772,1.183-14.674,1.624
					c-2.608,0.234-4.417-0.454-5.225,2.086c-0.712,2.237-1.021,4.695-1.52,6.99"/>
				<path d="M254.71,154.51c0.079-0.458,0.221-0.928,0.425-1.368c-0.589,0.355-1.209,0.662-1.864,0.872
					c-1.396,0.446-2.864,0.617-4.321,0.776c-1.229,0.134-2.459,0.262-3.689,0.384c3.002,0.996,6.221,1.296,9.363,0.934
					C254.582,155.581,254.617,155.047,254.71,154.51z"/>
				<path style="fill:none;stroke:#222221;stroke-width:0.5;stroke-miterlimit:10;" d="M203.533,256.917
					c-7.628-0.244-16.571,0.788-23.775,3.309"/>
				<path style="fill:#FFFFFF;stroke:#222221;stroke-width:0.5;stroke-miterlimit:10;" d="M259.451,135.529
					c1.787-0.455,3.441,0.428,4.095,2.188c1.021,2.748-1.723,4.491-4.153,3.711"/>
				<path style="fill:#FFFFFF;stroke:#222221;stroke-width:0.5;stroke-miterlimit:10;" d="M234.753,135.805
					c-0.943-0.66-2.284-0.485-3.097,0.357c-0.813,0.842-1.057,2.257-0.63,3.391c0.426,1.134,1.472,1.939,2.584,2.054
					c0.699,0.073,1.447-0.127,1.947-0.668"/>
				<path style="fill:none;stroke:#222221;stroke-width:0.5;stroke-miterlimit:10;" d="M261.866,137.377
					c-1.072-0.069-2.164,0.462-2.771,1.349"/>
				<path style="fill:none;stroke:#222221;stroke-width:0.5;stroke-miterlimit:10;" d="M232.365,137.415
					c0.855-0.021,1.709,0.408,2.202,1.108"/>
				<path style="fill:#FFFFFF;stroke:#222221;stroke-width:0.5;stroke-miterlimit:10;" d="M211.62,240.539
					c-0.48,0.807-1.057,1.545-1.752,2.19c-4.19,3.892-9.633,6.118-14.897,8.141c-4.569,1.756-9.16,3.552-13.82,5.051
					c-1.349,0.434-2.912,0.531-3.931,1.545c-2.4,2.389-1.733,6.979-1.87,10.04c-0.024,0.541-0.063,1.122-0.398,1.548
					c-0.335,0.426-1.084,0.559-1.394,0.114c-0.15-0.214-0.158-0.493-0.167-0.754c-0.019-0.562-0.072-3.646-1.424-2.318
					c-0.281,0.276-0.38,0.684-0.467,1.069c-0.285,1.264-0.57,2.529-0.856,3.793c-0.222,0.984-0.449,1.982-0.927,2.87
					c-0.478,0.888-1.247,1.668-2.221,1.93c-1.561,0.419-3.226-0.639-3.987-2.064c-0.761-1.425-0.809-3.117-0.723-4.731
					c0.284-5.274,1.772-11.75,5.147-15.953c3.605-4.489,8.72-7.704,13.326-11.047c2.607-1.893,5.214-3.785,7.822-5.678
					c1.844-1.339,5.106-2.645,6.171-4.705c1.391-2.693,1.424-5.708,1.786-8.649c0.443-3.596,1.074-7.167,1.754-10.725
					c0.591-3.092,1.246-6.245,2.863-8.946c3.204-5.353,10.379-7.248,13.986-1.172c1.669,2.812,3.38,4.756,3.137,7.792
					c-0.358,4.477-2.066,9.613-2.611,14.071C215.599,228.599,214.103,236.37,211.62,240.539z"/>
				<path style="fill:#4764A8;" d="M231.87,171.609c0.006-0.042,0.013-0.085,0.021-0.128c-4.036,0.618-8.091,1.241-11.983,2.476
					c-2.577,0.818-5.067,1.9-7.452,3.173c-2.627,1.401-5.155,3.055-7.196,5.223c-2.133,2.266-3.671,5.028-4.929,7.874
					c-1.798,4.067-3.062,8.346-4.32,12.611c-1.159,3.928-2.318,7.857-3.478,11.785c1.294,0.013,2.486-0.278,3.771-0.149
					c1.291,0.129,2.576,0.333,3.856,0.54c1.852,0.301,3.692,0.691,5.548,0.969c5.103,0.764,10.379,1.256,15.492,0.678
					c0.275-0.031,0.58-0.077,0.755-0.292c0.122-0.149,0.155-0.348,0.184-0.538c0.736-4.721,1.957-9.366,3.634-13.84
					c1.669-4.454,3.888-8.511,5.123-13.126c0.423-1.581,0.814-3.204,1.335-4.907c0.66-2.156,1.158-4.39,1.067-6.658
					c-0.04-1.006-0.126-2.015-0.584-2.904C232.214,173.422,231.699,172.78,231.87,171.609z"/>
				<path style="fill:#FFFFFF;stroke:#222221;stroke-width:0.5;stroke-miterlimit:10;" d="M283.692,240.871
					c0.523,0.78,1.138,1.486,1.867,2.094c4.392,3.663,9.946,5.595,15.31,7.335c4.656,1.51,9.336,3.058,14.07,4.307
					c1.371,0.362,2.937,0.375,4.008,1.333c1.419,1.269,1.875,3.247,2.085,5.062c0.112,0.971,0.144,1.947,0.197,2.922
					c0.062,1.145,0.289,2.272,0.298,3.432c0.002,0.282,0.001,0.578,0.136,0.826c0.239,0.443,0.921,0.557,1.292,0.218
					c0.446-0.408,0.41-1.18,0.399-1.732c-0.011-0.562-0.123-3.645,1.298-2.39c0.296,0.261,0.416,0.663,0.523,1.042
					c0.352,1.247,0.704,2.495,1.057,3.742c0.274,0.971,0.554,1.955,1.078,2.816c0.524,0.861,1.334,1.599,2.32,1.809
					c1.581,0.335,3.187-0.81,3.871-2.274c0.684-1.464,0.642-3.156,0.469-4.763c-0.565-5.252-2.396-11.639-5.99-15.656
					c-3.839-4.29-9.118-7.228-13.896-10.321c-2.704-1.751-5.409-3.502-8.113-5.253c-1.913-1.239-5.24-2.369-6.413-4.37
					c-1.533-2.615-1.726-5.624-2.245-8.541c-0.634-3.568-1.455-7.1-2.324-10.617c-0.755-3.056-1.578-6.17-3.336-8.781
					c-3.485-5.174-10.751-6.685-14.028-0.425c-1.517,2.897-3.122,4.929-2.717,7.949c0.596,4.451,2.576,9.489,3.358,13.912
					C279.082,229.161,280.99,236.841,283.692,240.871z"/>
				<path style="fill:none;stroke:#222221;stroke-width:0.5;stroke-miterlimit:10;" d="M218.44,217.131
					c0.546-3.496,3.516-10.237,4.062-13.733"/>
				<path style="fill:#FFFFFF;stroke:#222221;stroke-width:0.5;stroke-miterlimit:10;" d="M211.4,237.734
					c-0.317,1.543-1.289,2.941-2.626,3.775"/>
				<path style="fill:none;stroke:#222221;stroke-width:0.5;stroke-miterlimit:10;" d="M164.82,275.229
					c-0.234-2.675-0.275-5.368-0.121-8.049"/>
				<path style="fill:none;stroke:#222221;stroke-width:0.5;stroke-miterlimit:10;" d="M166.033,275.519
					c-0.027-2.746,0.17-5.494,0.588-8.208"/>
				<path style="fill:none;stroke:#222221;stroke-width:0.5;stroke-miterlimit:10;" d="M167.503,275.593
					c0.418-2.707,0.836-5.413,1.255-8.12"/>
				<path style="fill:#4764A8;" d="M266.254,199.604c1.903-0.519,2.436,0.341,3.282,1.723c1.391,2.273,1.937,5.114,2.451,7.692
					c0.403,2.021,0.168,3.912,0.129,5.871c8.777-1.266,17.348-3.551,25.878-5.976c-4.417-15.171-8.569-33.173-31.283-34.77
					c-1.928-0.135-3.363-0.015-4.729-0.386c-0.676,8.942-0.4,17.886,0.604,26.777C263.774,200.201,265.004,199.944,266.254,199.604z
					"/>
				<path style="fill:none;stroke:#222221;stroke-width:0.5;stroke-miterlimit:10;" d="M273.757,215.39
					c-0.304-3.27-2.21-11.817-2.514-15.087"/>
				<path style="fill:none;stroke:#222221;stroke-width:0.5;stroke-miterlimit:10;" d="M329.051,273.461
					c-0.331-2.816-0.829-5.613-1.493-8.37"/>
				<path style="fill:none;stroke:#222221;stroke-width:0.5;stroke-miterlimit:10;" d="M330.82,273.651
					c-0.21-1.715-0.421-3.431-0.631-5.146c-0.173-1.415-0.348-2.836-0.719-4.213"/>
				<path style="fill:none;stroke:#222221;stroke-width:0.5;stroke-miterlimit:10;" d="M332.521,272.738
					c0.038-3.013-0.315-6.03-1.048-8.953"/>
				<path style="fill:#FFFFFF;stroke:#222221;stroke-width:0.5;stroke-miterlimit:10;" d="M284.951,238.092
					c0.021,1.27,0.751,2.505,1.854,3.134"/>
				<path style="fill:none;stroke:#222221;stroke-width:0.5;stroke-miterlimit:10;" d="M233.741,171.269
					c1.671,1.453,3.809,2.282,5.983,2.704s4.4,0.462,6.614,0.5c1.062,0.018,2.127,0.037,3.186-0.045
					c2.496-0.193,4.947-0.951,7.116-2.201c0.36-0.208,1.539-1.069,1.878-1.31"/>
				<path style="fill:none;stroke:#222221;stroke-width:0.5;stroke-miterlimit:10;" d="M171.414,276.482
					c0.495,1.816,1.427,3.511,2.697,4.901"/>
			</g>
			<path style="fill:#F1CC4B;" d="M311.535,305.173H180.502c-4.473,0-8.098-3.626-8.098-8.098v-0.493
				c0-4.473,3.626-8.098,8.098-8.098h131.033c4.472,0,8.098,3.626,8.098,8.098v0.493
				C319.633,301.548,316.007,305.173,311.535,305.173z"/>
			
				<line style="fill:none;stroke:#000000;stroke-width:0.5;stroke-miterlimit:10;" x1="192.014" y1="288.633" x2="251.102" y2="288.633"/>
			
				<line style="fill:none;stroke:#000000;stroke-width:0.5;stroke-miterlimit:10;" x1="259.964" y1="288.633" x2="289.052" y2="288.633"/>
		</g>
		<g>
			<path style="fill:none;stroke:#000000;stroke-width:0.5;stroke-miterlimit:10;" d="M336.372,330.297
				c4.228,0,7.655,3.427,7.655,7.655s-3.427,7.655-7.655,7.655"/>
			<path d="M331.098,334.13c0,2.111-1.711,3.822-3.822,3.822c-2.111,0-3.822-1.711-3.822-3.822c0-2.111,1.711-3.822,3.822-3.822
				C329.387,330.308,331.098,332.019,331.098,334.13z"/>
		</g>
		<polyline style="fill:none;stroke:#000000;stroke-width:0.5;stroke-miterlimit:10;" points="93.921,298.711 88.569,298.051 
			88.841,303.886 83.002,303.721 82.995,309.84 77.156,309.676 77.985,314.944 		"/>
		<g>
			<g>
				
					<line style="fill:none;stroke:#000000;stroke-width:0.5;stroke-miterlimit:10;" x1="416.204" y1="249.162" x2="396.739" y2="269.29"/>
			</g>
			<g>
				
					<line style="fill:none;stroke:#000000;stroke-width:0.5;stroke-miterlimit:10;" x1="417.823" y1="242.06" x2="405.988" y2="254.183"/>
			</g>
		</g>
		<g>
			<circle cx="247.649" cy="335.256" r="4.289"/>
			
				<line style="fill:none;stroke:#000000;stroke-width:0.5;stroke-miterlimit:10;" x1="239.525" y1="357.533" x2="247.673" y2="349.585"/>
			
				<line style="fill:none;stroke:#000000;stroke-width:0.5;stroke-miterlimit:10;" x1="245.328" y1="356.953" x2="253.476" y2="349.005"/>
		</g>
		<g>
			
				<line style="fill:none;stroke:#222221;stroke-width:0.5;stroke-miterlimit:10;" x1="336.124" y1="383.966" x2="312.348" y2="400.082"/>
			
				<line style="fill:none;stroke:#222221;stroke-width:0.5;stroke-miterlimit:10;" x1="343.276" y1="383.561" x2="323.657" y2="396.747"/>
		</g>
		<g>
			<g>
				<polygon style="fill:#A8DCA4;stroke:#000000;stroke-width:2;stroke-miterlimit:10;" points="321.445,255.846 293.554,255.846 
					300.146,220.38 328.037,220.38 				"/>
				<polygon points="324.379,255.997 320.027,255.997 309.775,235.398 314.127,235.398 				"/>
			</g>
			<g>
				<g>
					<g>
						<rect x="348.059" y="309.478" style="fill:#F1CC4B;" width="70.39" height="5.532"/>
						<path style="fill:#8CC9DE;" d="M341.18,305.351L341.18,305.351c0,2.537,2.057,4.595,4.595,4.595h63.731v-9.189h-63.731
							C343.237,300.757,341.18,302.814,341.18,305.351z"/>
						<path style="fill:#D47172;" d="M414.704,300.752h-50.879c-2.115,0-3.83-1.715-3.83-3.83v-1.473c0-2.115,1.715-3.83,3.83-3.83
							h50.879V300.752z"/>
						<path style="fill:#FFFFFF;" d="M415.067,299.612h-48.418c-1.618,0-2.931-1.312-2.931-2.931v-1.127
							c0-1.618,1.312-2.93,2.931-2.93h48.418V299.612z"/>
						
							<line style="fill:none;stroke:#222221;stroke-width:0.5;stroke-miterlimit:10;" x1="364.368" y1="294.222" x2="414.823" y2="294.222"/>
						
							<line style="fill:none;stroke:#222221;stroke-width:0.5;stroke-miterlimit:10;" x1="363.815" y1="296.042" x2="414.823" y2="296.021"/>
						
							<line style="fill:none;stroke:#222221;stroke-width:0.5;stroke-miterlimit:10;" x1="364.368" y1="297.82" x2="414.823" y2="297.82"/>
					</g>
					<g>
						<rect x="340.366" y="314.326" style="fill:#FADDD4;" width="96.132" height="20.776"/>
						<path d="M391.195,324.236c0,1.673-1.255,3.03-2.804,3.03c-1.548,0-2.804-1.356-2.804-3.03c0-1.673,1.255-3.03,2.804-3.03
							C389.94,321.206,391.195,322.563,391.195,324.236z"/>
					</g>
					<g>
						<rect x="340.366" y="334.598" style="fill:#FADDD4;" width="96.132" height="20.776"/>
						<path d="M391.195,344.508c0,1.674-1.255,3.03-2.804,3.03c-1.548,0-2.804-1.356-2.804-3.03c0-1.673,1.255-3.03,2.804-3.03
							C389.94,341.478,391.195,342.835,391.195,344.508z"/>
					</g>
					<g>
						<rect x="340.366" y="354.87" style="fill:#FADDD4;" width="96.132" height="20.776"/>
						<path d="M391.195,364.78c0,1.673-1.255,3.03-2.804,3.03c-1.548,0-2.804-1.356-2.804-3.03c0-1.673,1.255-3.03,2.804-3.03
							C389.94,361.751,391.195,363.107,391.195,364.78z"/>
					</g>
					<g>
						<rect x="340.366" y="375.142" style="fill:#FADDD4;" width="96.132" height="20.776"/>
						<path d="M391.195,385.053c0,1.673-1.255,3.03-2.804,3.03c-1.548,0-2.804-1.356-2.804-3.03c0-1.673,1.255-3.03,2.804-3.03
							C389.94,382.023,391.195,383.379,391.195,385.053z"/>
					</g>
					<g>
						<rect x="340.366" y="395.415" style="fill:#FADDD4;" width="96.132" height="20.776"/>
					</g>
				</g>
				
					<line style="fill:none;stroke:#000000;stroke-width:0.5;stroke-miterlimit:10;" x1="340.366" y1="334.598" x2="436.499" y2="334.598"/>
				
					<line style="fill:none;stroke:#000000;stroke-width:0.5;stroke-miterlimit:10;" x1="340.366" y1="356.56" x2="436.499" y2="356.56"/>
				
					<line style="fill:none;stroke:#000000;stroke-width:0.5;stroke-miterlimit:10;" x1="340.366" y1="378.521" x2="436.499" y2="378.521"/>
				
					<line style="fill:none;stroke:#000000;stroke-width:0.5;stroke-miterlimit:10;" x1="340.366" y1="400.483" x2="436.499" y2="400.483"/>
			</g>
			<g>
				<g>
					<g>
						<path style="fill:#8CC9DE;" d="M92.09,252.716l0.058-2.175c-4.668-0.126-7.58-0.868-8.655-4.283
							c-0.447-1.421-0.242-2.984,0.536-4.079c0.693-0.976,1.86-1.654,3.2-1.86c1.235-0.189,2.613,0.013,3.984,0.585l0.837-2.009
							c-1.741-0.725-3.52-0.978-5.152-0.727c-1.919,0.295-3.612,1.297-4.644,2.75c-1.182,1.664-1.495,3.904-0.837,5.993
							C83.168,252.475,88.972,252.633,92.09,252.716z"/>
					</g>
					<polygon style="fill:#8CC9DE;" points="89.12,254.95 104.202,254.95 104.928,234.659 88.394,234.659 					"/>
					
						<line style="fill:#5F76E8;stroke:#000000;stroke-width:0.5;stroke-miterlimit:10;" x1="90.372" y1="238.292" x2="90.372" y2="247.188"/>
					<path style="fill:#5F76E8;stroke:#000000;stroke-width:0.5;stroke-miterlimit:10;" d="M90.498,248.688c0,0.668,0,1.336,0,2.004
						"/>
				</g>
				<g>
					
						<line style="fill:none;stroke:#000000;stroke-width:3;stroke-miterlimit:10;" x1="103.491" y1="258.354" x2="79.081" y2="417.129"/>
					
						<line style="fill:none;stroke:#000000;stroke-width:3;stroke-miterlimit:10;" x1="347.039" y1="258.194" x2="371.449" y2="417.129"/>
				</g>
				<g>
					<path style="fill:#D47172;" d="M191.697,251.914h-75.225c-0.99,0-1.792,0.628-1.792,1.403c0,0.775,0.803,1.403,1.792,1.403
						h75.225V251.914z"/>
					<path style="fill:#D47172;" d="M112.433,254.72h67.389l-5.864-38.723c-0.203-1.344-1.345-2.348-2.671-2.348h-62.047
						c-1.602,0-2.807,1.444-2.562,3.068L112.433,254.72z"/>
					<path d="M137.76,231.421c0,1.227,0.994,2.221,2.221,2.221c1.226,0,2.221-0.994,2.221-2.221c0-1.226-0.994-2.221-2.221-2.221
						C138.755,229.2,137.76,230.195,137.76,231.421z"/>
				</g>
				<rect x="77.399" y="254.72" width="297.658" height="4.189"/>
			</g>
			<g>
				<g>
					<path style="fill:#A8DCA4;" d="M339.239,213.682c0.19-3.853,0.269-8.246,2.277-11.669c2.81-4.789,8.838-3.908,11.52,0.654
						c1.845,3.139,2.163,6.94,2.063,10.581c-0.119,4.343-0.767,8.653-1.413,12.949c-0.766,5.095-5.037,11.861-10.563,6.808
						c-3.599-3.291-3.858-8.244-3.96-12.781C339.115,218.022,339.132,215.849,339.239,213.682z"/>
					<path style="fill:none;stroke:#222221;stroke-width:0.5;stroke-miterlimit:10;" d="M344.651,198.823
						c-2.621,11.98-3.329,24.376-2.089,36.576"/>
					<path style="fill:none;stroke:#222221;stroke-width:0.5;stroke-miterlimit:10;" d="M346.95,198.245
						c-0.26,1.816-0.274,3.657-0.248,5.492c0.147,10.554,1.55,21.296-0.997,31.539"/>
					<path style="fill:none;stroke:#222221;stroke-width:0.5;stroke-miterlimit:10;" d="M349.803,199.114
						c4.152,11.712,3.997,24.898-0.429,36.509"/>
				</g>
				<path style="fill:#D47172;" d="M340.056,254.654h12.195c3.898-2.014,6.696-5.9,7.145-10.539l1.381-14.282H331.53l1.381,14.282
					C333.36,248.754,336.158,252.64,340.056,254.654z"/>
				<g>
					<defs>
						<path id="SVGID_1_" d="M340.056,254.654h12.195c3.898-2.014,6.696-5.9,7.145-10.539l1.381-14.282H331.53l1.381,14.282
							C333.36,248.754,336.158,252.64,340.056,254.654z"/>
					</defs>
					<clipPath id="SVGID_00000104667356928641782280000016665537037345701275_">
						<use xlink:href="#SVGID_1_"  style="overflow:visible;"/>
					</clipPath>
					
						<path style="clip-path:url(#SVGID_00000104667356928641782280000016665537037345701275_);fill:none;stroke:#222221;stroke-width:0.5;stroke-miterlimit:10;" d="
						M330.717,233.05c10.104,0.339,20.221,0.272,30.319-0.202"/>
					
						<path style="clip-path:url(#SVGID_00000104667356928641782280000016665537037345701275_);fill:none;stroke:#222221;stroke-width:0.5;stroke-miterlimit:10;" d="
						M332.314,249.54c9.633,0.236,19.283-0.207,28.853-1.324"/>
					
						<path style="clip-path:url(#SVGID_00000104667356928641782280000016665537037345701275_);fill:none;stroke:#222221;stroke-width:0.5;stroke-miterlimit:10;" d="
						M360.901,246.087c-8.36,0.229-16.72,0.457-25.08,0.686c-1.653,0.045-3.305,0.09-4.958,0.136"/>
				</g>
			</g>
		</g>
		<circle cx="316.509" cy="165.945" r="2.161"/>
		<path d="M202.71,155.29c0,1.682-1.364,3.046-3.046,3.046c-1.682,0-3.046-1.364-3.046-3.046c0-1.683,1.364-3.046,3.046-3.046
			C201.346,152.243,202.71,153.607,202.71,155.29z"/>
		<path style="fill:#FADDD4;" d="M187.208,137.472c-3.5,0.552-7.072,0.534-10.567,1.117c-3.495,0.583-7.038,1.869-9.397,4.512
			c-1.606,1.799-2.507,4.677-1.024,6.579c1.048,1.343,2.962,1.731,4.645,1.466c1.683-0.266,3.224-1.066,4.798-1.719
			c3.448-1.432,7.176-2.187,10.91-2.209c1.775-0.011,3.564,0.141,5.318-0.135c3.261-0.513,6.728-3.65,5.461-7.275
			C195.875,135.581,190.488,136.954,187.208,137.472z"/>
		<circle style="fill:#F1CC4B;" cx="184.231" cy="163.215" r="5.421"/>
		<path style="fill:#D47172;" d="M196.762,129.178c0,1.282-1.039,2.321-2.321,2.321c-1.282,0-2.321-1.039-2.321-2.321
			c0-1.282,1.039-2.321,2.321-2.321C195.723,126.857,196.762,127.896,196.762,129.178z"/>
		<circle style="fill:#F1CC4B;" cx="299.122" cy="121.196" r="4.055"/>
		<path style="fill:none;stroke:#000000;stroke-width:0.5;stroke-miterlimit:10;" d="M204.774,145.609
			c2.704-0.883,5.612,0.594,6.494,3.298c0.883,2.704-0.594,5.612-3.298,6.494"/>
		<g>
			<path style="fill:#A8DCA4;" d="M135.905,349.727c-3.308-4.292-5.249-10.567-5.183-15.279c0.079-5.63,2.562-10.823,5.663-15.401
				c1.644-2.428,3.529-4.648,5.343-6.945c0.757-0.958,3.758-6.836,4.446-6.836c-0.446,0.726,1.386,5.31,1.602,6.289
				c0.53,2.403,0.96,4.838,1.116,7.297c0.268,4.216-0.08,9.157-2.494,12.717c-2.646,3.902-4.746,8.173-6.232,12.646
				c-0.63,1.896-1.284,3.741-1.139,5.749c0.077,1.061,0.563,2.135,0.445,3.152C138.158,352.266,136.962,351.098,135.905,349.727z"/>
			<path style="fill:#A8DCA4;" d="M146.436,336.711c1.122-1.467,2.453-2.836,4.106-4.094c2.083-1.585,4.398-2.839,6.538-4.347
				c2.155-1.518,4.121-3.284,6.082-5.046c0.812,3.201,0.28,6.625-0.895,9.711c-2.592,6.811-6.313,13.217-13.019,16.42
				c-1.768,0.845-3.934,0.773-5.666,1.638c-1.527,0.763-2.949,2.296-4.294,3.353c-0.291-2.156,0.559-4.285,1.393-6.296
				C142.409,343.882,143.884,340.045,146.436,336.711z"/>
			<path style="fill:#A8DCA4;" d="M134.404,363.222c-1.329-1.73-2.785-3.397-4.579-4.638c-1.612-1.116-3.448-1.855-5.217-2.7
				c-3.333-1.591-6.465-3.574-9.502-5.674c0.529,4.471,0.022,9.422,2.703,13.039c2.396,3.234,6.658,4.398,10.633,5.031
				c3.946,0.628,7.761,1.129,11.281,3.142C138.547,368.62,136.284,365.67,134.404,363.222z"/>
			<path style="fill:#A8DCA4;" d="M150.469,363.375c5.663-3.98,12.909-4.843,19.828-5.063c-2.908,3.711-3.929,8.803-7.454,11.934
				c-2.895,2.572-6.916,3.321-10.659,4.313c-4.447,1.179-8.837,4.082-13.216,4.939c-0.387-1.956,2.723-5.824,3.754-7.457
				C144.799,368.748,147.256,365.633,150.469,363.375z"/>
			<path style="fill:none;stroke:#323232;stroke-width:0.5;stroke-miterlimit:10;" d="M133.165,399.384
				c3.694-6.828,3.915-13.324,5.214-20.711c1.452-8.255,3.298-16.571,0.834-24.849c-1.207-4.055-3.39-7.878-3.695-12.097
				c-0.418-5.774,2.724-11.137,5.754-16.07"/>
			<path style="fill:#D47172;" d="M127.691,416.611h19.825c3.178-2.811,5.527-6.947,6.419-11.845l2.016-20.922h-37.596l2.766,19.934
				C121.856,409.085,124.295,413.604,127.691,416.611z"/>
			<path style="fill:none;stroke:#222221;stroke-width:0.5;stroke-miterlimit:10;" d="M151.365,394.205
				c-0.08,5.683-0.607,9.246-1.524,12.748"/>
			<path style="fill:none;stroke:#222221;stroke-width:0.5;stroke-miterlimit:10;" d="M151.73,388.523
				c-0.081,1.039-0.163,2.079-0.245,3.118"/>
			<path style="fill:none;stroke:#323232;stroke-width:0.5;stroke-miterlimit:10;" d="M139.324,354.534
				c2.362-4.696,6.536-8.212,10.859-11.202c1.548-1.071,3.226-2.21,3.873-3.978"/>
			<path style="fill:none;stroke:#323232;stroke-width:0.5;stroke-miterlimit:10;" d="M138.236,380.426
				c2.339-3.598,6.745-5.142,10.16-7.739c2.861-2.176,5.086-5.155,8.151-7.033"/>
			<path style="fill:none;stroke:#323232;stroke-width:0.5;stroke-miterlimit:10;" d="M139.687,371.59
				c-0.741-0.876-1.481-1.752-2.222-2.627c-0.699-0.827-1.412-1.666-2.317-2.261c-1.02-0.67-2.222-0.991-3.387-1.352
				c-3.203-0.991-6.375-2.418-8.689-4.844"/>
		</g>
		<g>
			<path style="fill:none;stroke:#000000;stroke-width:0.5;stroke-miterlimit:10;" d="M244.934,104.224
				c0.176-0.002,0.351,0,0.527,0.014c1.188-1.042,6.15-5.732,6.15-11.363c0-6.396-6.405-11.58-6.405-11.58s-6.406,5.185-6.406,11.58
				C238.8,98.478,243.715,103.151,244.934,104.224z"/>
			<path style="fill:none;stroke:#000000;stroke-width:0.5;stroke-miterlimit:10;" d="M244.744,104.295
				c0.441-0.011,0.87-0.037,0.961-0.174c0.067-0.1,0.025-0.422,0.03-0.54c0.026-0.673-1.522-4.92-2.29-6.845
				c-0.579-1.45-1.401-2.813-2.516-3.914c-4.548-4.496-11.707-4.828-11.707-4.828s-0.816,8.2,3.732,12.697
				c3.183,3.147,8.148,3.645,10.842,3.661C243.985,104.303,244.368,104.304,244.744,104.295z"/>
			<path style="fill:none;stroke:#000000;stroke-width:0.5;stroke-miterlimit:10;" d="M261.877,88.66c0,0-7.43,0.535-12.168,4.831
				c-4.739,4.295-4.992,10.724-4.992,10.724s0.02,0.003,0.048,0.007c0.426-0.018,0.855,0.019,1.277,0.083h0.002c0,0,0,0,0,0
				c0.084,0.013,0.169,0.018,0.252,0.034c0.02,0.004,0.035,0.017,0.055,0.022c2.622,0.127,7.823-0.073,11.248-3.177
				C262.338,96.888,261.877,88.66,261.877,88.66z"/>
		</g>
		<circle style="fill:none;stroke:#000000;stroke-width:0.5;stroke-miterlimit:10;" cx="133.824" cy="285.561" r="2.956"/>
		
			<line style="fill:none;stroke:#000000;stroke-width:0.5;stroke-miterlimit:10;" x1="58.225" y1="416.753" x2="423.971" y2="416.753"/>
		
			<line style="fill:none;stroke:#000000;stroke-width:0.5;stroke-miterlimit:10;" x1="104.246" y1="421.666" x2="325.524" y2="421.666"/>
		
			<line style="fill:none;stroke:#000000;stroke-width:0.5;stroke-miterlimit:10;" x1="374.699" y1="421.666" x2="389.977" y2="421.666"/>
		<path style="fill:none;stroke:#000000;stroke-width:0.5;stroke-miterlimit:10;" d="M319.606,157.686
			c-2.54,0-4.599-2.059-4.599-4.599c0-2.54,2.059-4.599,4.599-4.599c2.54,0,4.599,2.059,4.599,4.599"/>
	</g>
</g>
</svg>
